<?xml version="1.0" encoding="UTF-8"?>
<svg version="1.1" xmlns="http://www.w3.org/2000/svg" width="512" height="512">
<path d="M0 0 C0.94107101 -0.0049649 1.88214203 -0.00992981 2.85173035 -0.01504517 C5.94543204 -0.02957173 9.03908239 -0.03645427 12.1328125 -0.04199219 C13.19772919 -0.04481956 14.26264587 -0.04764694 15.35983276 -0.05056 C20.99981939 -0.06551715 26.63978068 -0.07476749 32.27978516 -0.07910156 C38.06469939 -0.08456887 43.8493762 -0.10857023 49.63421631 -0.13707352 C54.11790614 -0.15583165 58.60154039 -0.16091255 63.08526611 -0.16243744 C65.21560966 -0.16543683 67.34595288 -0.17337182 69.47625732 -0.18662262 C92.76199189 -0.32108054 112.25831421 1.95508407 130.0078125 18.47363281 C145.02865567 34.35898494 146.56354682 53.59452011 146.5324707 74.27734375 C146.53682485 76.19908851 146.54201032 78.12083153 146.54795837 80.04257202 C146.56129994 85.24220309 146.56193128 90.44176122 146.55939507 95.64140606 C146.55831974 100.00824884 146.56322426 104.37507722 146.5680005 108.74191689 C146.57908402 119.07372392 146.57954288 129.4054946 146.57348633 139.73730469 C146.56747914 150.31552708 146.57967687 160.89361536 146.6010564 171.47181487 C146.6188304 180.6096091 146.62464827 189.74736131 146.62141865 198.88517213 C146.61962685 204.31699658 146.6220247 209.7487259 146.63613319 215.18053436 C146.75970884 267.27321488 145.09431447 324.70488913 112.2578125 368.16113281 C111.608125 369.03125 110.9584375 369.90136719 110.2890625 370.79785156 C100.3815882 383.45945585 88.99342908 394.74413254 75.2578125 403.16113281 C73.57751953 404.20527344 73.57751953 404.20527344 71.86328125 405.27050781 C63.6932117 410.2142465 55.24624078 413.96835862 46.2578125 417.16113281 C45.01515625 417.60328125 43.7725 418.04542969 42.4921875 418.50097656 C16.42834033 427.36754391 -25.86817196 436.09545781 -52.0546875 424.47363281 C-59.50495526 420.26059158 -64.18100202 414.29909314 -66.7421875 406.16113281 C-67.63077222 401.70137239 -67.87366572 397.46531089 -67.88745117 392.92163086 C-67.89080978 392.22320068 -67.8941684 391.52477051 -67.89762878 390.80517578 C-67.90707709 388.51104929 -67.90907886 386.21699627 -67.91015625 383.92285156 C-67.9133733 382.31630931 -67.9167377 380.70976735 -67.92024231 379.10322571 C-67.92621843 375.74011557 -67.92808379 372.37703108 -67.92749023 369.01391602 C-67.92738875 364.72370776 -67.94103374 360.4336655 -67.95826244 356.14349651 C-67.96943122 352.82588459 -67.97140794 349.50831216 -67.97088051 346.19068336 C-67.97205356 344.6099878 -67.97643704 343.02929099 -67.98421288 341.44861412 C-68.03893855 329.17425934 -67.77996604 318.1913268 -59.7421875 308.16113281 C-50.3296662 300.12403276 -40.47315115 298.97012476 -28.55078125 298.81933594 C-21.78220406 298.57226563 -16.62524957 296.68757919 -11.5 292.19628906 C-10.96117187 291.5453125 -10.42234375 290.89433594 -9.8671875 290.22363281 C-9.31289062 289.57523437 -8.75859375 288.92683594 -8.1875 288.25878906 C-5.34204167 284.12902927 -4.48759322 280.3929445 -4.328125 275.42285156 C-4.28945312 274.35615234 -4.25078125 273.28945313 -4.2109375 272.19042969 C-4.18 271.08763672 -4.1490625 269.98484375 -4.1171875 268.84863281 C-4.07851562 267.72650391 -4.03984375 266.604375 -4 265.44824219 C-3.90596739 262.68603429 -3.82031409 259.92382881 -3.7421875 257.16113281 C-4.31283936 257.17490967 -4.88349121 257.18868652 -5.47143555 257.20288086 C-21.12360412 257.41961573 -36.02832471 252.64657554 -47.7421875 242.16113281 C-48.43054688 241.56558594 -49.11890625 240.97003906 -49.828125 240.35644531 C-60.52349155 230.48064708 -66.44803106 216.57122977 -67.7421875 202.16113281 C-67.89830651 197.472818 -67.89976181 192.78491207 -67.90332031 188.09448242 C-67.90795498 186.66790643 -67.91298051 185.24133166 -67.91836548 183.8147583 C-67.93143173 179.95278616 -67.93792348 176.09083136 -67.94237614 172.22884059 C-67.94531711 169.80968354 -67.94942387 167.39053112 -67.95388031 164.97137642 C-67.96754201 157.38414151 -67.97721432 149.79691731 -67.9810822 142.20967096 C-67.98555537 133.48570468 -68.00307435 124.76189566 -68.0320828 116.03797716 C-68.05378892 109.27248953 -68.06379127 102.50704584 -68.06512332 95.7415238 C-68.06616527 91.71135331 -68.07194135 87.6813309 -68.08994293 83.65119743 C-68.10657825 79.85325351 -68.10850534 76.05556654 -68.09980392 72.25759888 C-68.09868217 70.22306935 -68.11228066 68.18854775 -68.1265564 66.15406799 C-68.04755106 48.47787359 -63.87778939 33.90564714 -52.7421875 20.16113281 C-52.22011719 19.51144531 -51.69804688 18.86175781 -51.16015625 18.19238281 C-38.36335846 3.93772198 -18.26816306 0.02342356 0 0 Z M-20.5546875 49.78613281 C-25.86552632 56.90489997 -25.02973806 66.71402541 -25.00097656 75.14135742 C-25.0044812 76.41408005 -25.00798584 77.68680267 -25.01159668 78.99809265 C-25.0206562 82.46510208 -25.01720298 85.93199147 -25.01083851 89.39900279 C-25.00574387 93.04315032 -25.01047963 96.68728818 -25.01361084 100.33143616 C-25.01724091 106.45006132 -25.01247713 112.56863806 -25.00292969 118.68725586 C-24.99205185 125.73946642 -24.9955697 132.79156126 -25.0065825 139.84376901 C-25.01568863 145.92049961 -25.01692431 151.99719558 -25.01170516 158.0739308 C-25.00860305 161.69365906 -25.00812722 165.31333311 -25.01477814 168.93305779 C-25.02168304 172.9726116 -25.01208478 177.01196922 -25.00097656 181.05151367 C-25.00502502 182.23571899 -25.00907349 183.41992432 -25.01324463 184.64001465 C-25.12781355 197.71859496 -25.12781355 197.71859496 -19.7421875 209.16113281 C-12.93587028 213.68841169 -5.91872908 214.18666538 2.07104492 214.39990234 C13.40945461 214.74297415 23.04581926 216.02616383 31.6015625 224.16113281 C36.23860587 229.76058141 38.35970984 236.7518768 38.41894531 243.9387207 C38.42855286 244.88393082 38.4381604 245.82914093 38.44805908 246.80299377 C38.45230896 247.81965622 38.45655884 248.83631866 38.4609375 249.88378906 C38.46663757 250.93964706 38.47233765 251.99550507 38.47821045 253.08335876 C38.48765504 255.3201294 38.49419228 257.55691392 38.49804688 259.79370117 C38.5077071 263.18661433 38.53871741 266.5789098 38.5703125 269.97167969 C38.57684762 272.15071257 38.58209609 274.32974977 38.5859375 276.50878906 C38.5982843 277.51128189 38.6106311 278.51377472 38.62335205 279.54664612 C38.56959053 296.8743619 30.85749938 311.30199493 18.9453125 323.53613281 C5.64328135 336.15600852 -6.66294929 339.75056772 -24.7421875 342.16113281 C-24.7421875 356.02113281 -24.7421875 369.88113281 -24.7421875 384.16113281 C-10.71888001 384.27714716 -10.71888001 384.27714716 3.0703125 383.03613281 C3.98699707 382.90489014 4.90368164 382.77364746 5.84814453 382.63842773 C26.29694343 379.45855698 45.06979907 372.18597121 61.2578125 359.16113281 C61.95003906 358.63261719 62.64226562 358.10410156 63.35546875 357.55957031 C89.3628301 336.56754505 97.83547379 299.81750594 101.6796875 268.30957031 C103.16810408 253.79514576 103.40815458 239.21735872 103.40307617 224.6394043 C103.40607926 222.87944977 103.40948437 221.1194959 103.41325378 219.35954285 C103.42197112 214.64526726 103.42442634 209.93100989 103.42506957 205.21672702 C103.42578595 202.26284587 103.42793102 199.30896921 103.43056679 196.35508919 C103.43977233 186.02765743 103.44390683 175.70023846 103.44311523 165.37280273 C103.44251245 155.77672896 103.45311584 146.18071104 103.4688589 136.58465141 C103.48194909 128.30816938 103.48729866 120.03170562 103.48665982 111.75521332 C103.48640572 106.82777525 103.48921005 101.90038718 103.49983788 96.97295952 C103.50954643 92.34757337 103.50957922 87.72228488 103.50232124 83.09689522 C103.50127955 81.40628033 103.50361345 79.71565925 103.5096817 78.02505493 C104.06441569 61.67783108 104.06441569 61.67783108 97.0859375 47.53613281 C91.83683461 43.58808961 85.76163857 43.86930824 79.50805664 43.88647461 C78.54306747 43.88136368 77.57807831 43.87625275 76.58384705 43.87098694 C73.40349067 43.85712099 70.22335171 43.8580454 67.04296875 43.86035156 C64.82628804 43.85646316 62.60960808 43.85212819 60.39292908 43.84736633 C55.75029076 43.83991069 51.1077285 43.8401908 46.46508789 43.84545898 C40.52227156 43.85125447 34.57976681 43.8343173 28.63700199 43.81111431 C24.06015713 43.7963674 19.48338716 43.79550656 14.90652275 43.79862404 C12.71571676 43.79811137 10.52490651 43.79288386 8.33412361 43.78281212 C5.26819856 43.77044592 2.20287859 43.77724067 -0.86303711 43.78881836 C-1.76351776 43.78117462 -2.66399841 43.77353088 -3.59176636 43.76565552 C-10.51355587 43.82329262 -15.33713283 44.91641512 -20.5546875 49.78613281 Z " fill="#000000" transform="translate(88.7421875,41.8388671875)"/>
<path d="M0 0 C0.94107101 -0.0049649 1.88214203 -0.00992981 2.85173035 -0.01504517 C5.94543204 -0.02957173 9.03908239 -0.03645427 12.1328125 -0.04199219 C13.19772919 -0.04481956 14.26264587 -0.04764694 15.35983276 -0.05056 C20.99981939 -0.06551715 26.63978068 -0.07476749 32.27978516 -0.07910156 C38.06469939 -0.08456887 43.8493762 -0.10857023 49.63421631 -0.13707352 C54.11790614 -0.15583165 58.60154039 -0.16091255 63.08526611 -0.16243744 C65.21560966 -0.16543683 67.34595288 -0.17337182 69.47625732 -0.18662262 C92.76199189 -0.32108054 112.25831421 1.95508407 130.0078125 18.47363281 C145.02865567 34.35898494 146.56354682 53.59452011 146.5324707 74.27734375 C146.53682485 76.19908851 146.54201032 78.12083153 146.54795837 80.04257202 C146.56129994 85.24220309 146.56193128 90.44176122 146.55939507 95.64140606 C146.55831974 100.00824884 146.56322426 104.37507722 146.5680005 108.74191689 C146.57908402 119.07372392 146.57954288 129.4054946 146.57348633 139.73730469 C146.56747914 150.31552708 146.57967687 160.89361536 146.6010564 171.47181487 C146.6188304 180.6096091 146.62464827 189.74736131 146.62141865 198.88517213 C146.61962685 204.31699658 146.6220247 209.7487259 146.63613319 215.18053436 C146.75970884 267.27321488 145.09431447 324.70488913 112.2578125 368.16113281 C111.608125 369.03125 110.9584375 369.90136719 110.2890625 370.79785156 C100.3815882 383.45945585 88.99342908 394.74413254 75.2578125 403.16113281 C73.57751953 404.20527344 73.57751953 404.20527344 71.86328125 405.27050781 C63.6932117 410.2142465 55.24624078 413.96835862 46.2578125 417.16113281 C45.01515625 417.60328125 43.7725 418.04542969 42.4921875 418.50097656 C16.42834033 427.36754391 -25.86817196 436.09545781 -52.0546875 424.47363281 C-59.50495526 420.26059158 -64.18100202 414.29909314 -66.7421875 406.16113281 C-67.71344725 401.39369918 -67.89610801 396.74344378 -67.90332031 391.89599609 C-67.90828522 391.08867035 -67.91325012 390.2813446 -67.91836548 389.44955444 C-67.93290438 386.79350923 -67.9397745 384.13752369 -67.9453125 381.48144531 C-67.95106985 379.62588501 -67.9568275 377.77032471 -67.96258545 375.9147644 C-67.97307126 372.02959925 -67.97893004 368.14445464 -67.98242188 364.25927734 C-67.98790784 359.29407519 -68.01194833 354.32914706 -68.04039383 349.36403084 C-68.0590635 345.53261532 -68.06422807 341.70126535 -68.06575775 337.8698082 C-68.06877397 336.03986993 -68.07676749 334.20993254 -68.08994293 332.38003922 C-68.10709774 329.81483607 -68.10510063 327.25029665 -68.09863281 324.68505859 C-68.1078476 323.93778503 -68.11706238 323.19051147 -68.1265564 322.42059326 C-68.07859929 316.31425735 -66.87201554 310.76778803 -62.91015625 305.91894531 C-62.25660156 305.38011719 -61.60304688 304.84128906 -60.9296875 304.28613281 C-60.28386719 303.73183594 -59.63804687 303.17753906 -58.97265625 302.60644531 C-53.0975608 298.79946578 -46.8321067 298.73609307 -40.0546875 298.28613281 C-26.72816042 297.32441398 -26.72816042 297.32441398 -15.2421875 291.03613281 C-11.29918647 283.47871418 -10.19774288 275.43714995 -9.5546875 267.03613281 C-9.47283203 266.07964844 -9.39097656 265.12316406 -9.30664062 264.13769531 C-9.10902345 261.81278733 -8.92101902 259.4875479 -8.7421875 257.16113281 C-9.4323999 257.13607666 -10.1226123 257.11102051 -10.83374023 257.08520508 C-27.58246698 256.32893908 -42.00645296 248.91578562 -53.453125 236.88769531 C-65.56111777 222.46554692 -67.88956295 206.22791904 -67.90332031 188.09448242 C-67.90795498 186.66790643 -67.91298051 185.24133166 -67.91836548 183.8147583 C-67.93143173 179.95278616 -67.93792348 176.09083136 -67.94237614 172.22884059 C-67.94531711 169.80968354 -67.94942387 167.39053112 -67.95388031 164.97137642 C-67.96754201 157.38414151 -67.97721432 149.79691731 -67.9810822 142.20967096 C-67.98555537 133.48570468 -68.00307435 124.76189566 -68.0320828 116.03797716 C-68.05378892 109.27248953 -68.06379127 102.50704584 -68.06512332 95.7415238 C-68.06616527 91.71135331 -68.07194135 87.6813309 -68.08994293 83.65119743 C-68.10657825 79.85325351 -68.10850534 76.05556654 -68.09980392 72.25759888 C-68.09868217 70.22306935 -68.11228066 68.18854775 -68.1265564 66.15406799 C-68.04755106 48.47787359 -63.87778939 33.90564714 -52.7421875 20.16113281 C-52.22011719 19.51144531 -51.69804687 18.86175781 -51.16015625 18.19238281 C-38.36335846 3.93772198 -18.26816306 0.02342356 0 0 Z M-20.5546875 49.78613281 C-25.86552632 56.90489997 -25.02973806 66.71402541 -25.00097656 75.14135742 C-25.0044812 76.41408005 -25.00798584 77.68680267 -25.01159668 78.99809265 C-25.0206562 82.46510208 -25.01720298 85.93199147 -25.01083851 89.39900279 C-25.00574387 93.04315032 -25.01047963 96.68728818 -25.01361084 100.33143616 C-25.01724091 106.45006132 -25.01247713 112.56863806 -25.00292969 118.68725586 C-24.99205185 125.73946642 -24.9955697 132.79156126 -25.0065825 139.84376901 C-25.01568863 145.92049961 -25.01692431 151.99719558 -25.01170516 158.0739308 C-25.00860305 161.69365906 -25.00812722 165.31333311 -25.01477814 168.93305779 C-25.02168304 172.9726116 -25.01208478 177.01196922 -25.00097656 181.05151367 C-25.00502502 182.23571899 -25.00907349 183.41992432 -25.01324463 184.64001465 C-25.12781355 197.71859496 -25.12781355 197.71859496 -19.7421875 209.16113281 C-13.21185494 213.50483818 -6.76026605 214.16809601 0.91015625 214.30175781 C1.93431641 214.32109375 2.95847656 214.34042969 4.01367188 214.36035156 C6.13066822 214.39414033 8.24797001 214.41242999 10.36523438 214.41503906 C17.27013923 214.57995822 21.91446184 215.66270314 27.2578125 220.16113281 C33.04216097 226.24992068 33.56674811 231.78265432 33.55859375 239.82519531 C33.56287888 240.7718808 33.567164 241.71856628 33.57157898 242.69393921 C33.57731814 244.70285242 33.57782559 246.71178641 33.57348633 248.72070312 C33.57037344 251.72727348 33.59362449 254.73281249 33.61914062 257.73925781 C33.6968439 281.22201083 31.3468528 303.98691455 15.3046875 322.40332031 C10.97826426 326.64717822 6.09770902 329.5765983 0.7578125 332.34863281 C0.17257812 332.65768555 -0.41265625 332.96673828 -1.015625 333.28515625 C-8.67718456 337.02453776 -16.35059699 338.69301796 -24.7421875 341.16113281 C-24.7421875 355.35113281 -24.7421875 369.54113281 -24.7421875 384.16113281 C-10.71888001 384.27714716 -10.71888001 384.27714716 3.0703125 383.03613281 C3.98699707 382.90489014 4.90368164 382.77364746 5.84814453 382.63842773 C26.29694343 379.45855698 45.06979907 372.18597121 61.2578125 359.16113281 C61.95003906 358.63261719 62.64226562 358.10410156 63.35546875 357.55957031 C89.3628301 336.56754505 97.83547379 299.81750594 101.6796875 268.30957031 C103.16810408 253.79514576 103.40815458 239.21735872 103.40307617 224.6394043 C103.40607926 222.87944977 103.40948437 221.1194959 103.41325378 219.35954285 C103.42197112 214.64526726 103.42442634 209.93100989 103.42506957 205.21672702 C103.42578595 202.26284587 103.42793102 199.30896921 103.43056679 196.35508919 C103.43977233 186.02765743 103.44390683 175.70023846 103.44311523 165.37280273 C103.44251245 155.77672896 103.45311584 146.18071104 103.4688589 136.58465141 C103.48194909 128.30816938 103.48729866 120.03170562 103.48665982 111.75521332 C103.48640572 106.82777525 103.48921005 101.90038718 103.49983788 96.97295952 C103.50954643 92.34757337 103.50957922 87.72228488 103.50232124 83.09689522 C103.50127955 81.40628033 103.50361345 79.71565925 103.5096817 78.02505493 C104.06441569 61.67783108 104.06441569 61.67783108 97.0859375 47.53613281 C91.83683461 43.58808961 85.76163857 43.86930824 79.50805664 43.88647461 C78.54306747 43.88136368 77.57807831 43.87625275 76.58384705 43.87098694 C73.40349067 43.85712099 70.22335171 43.8580454 67.04296875 43.86035156 C64.82628804 43.85646316 62.60960808 43.85212819 60.39292908 43.84736633 C55.75029076 43.83991069 51.1077285 43.8401908 46.46508789 43.84545898 C40.52227156 43.85125447 34.57976681 43.8343173 28.63700199 43.81111431 C24.06015713 43.7963674 19.48338716 43.79550656 14.90652275 43.79862404 C12.71571676 43.79811137 10.52490651 43.79288386 8.33412361 43.78281212 C5.26819856 43.77044592 2.20287859 43.77724067 -0.86303711 43.78881836 C-1.76351776 43.78117462 -2.66399841 43.77353088 -3.59176636 43.76565552 C-10.51355587 43.82329262 -15.33713283 44.91641512 -20.5546875 49.78613281 Z " fill="#000000" transform="translate(344.7421875,41.8388671875)"/>
</svg>
